<?xml version="1.0" standalone="no"?><!DOCTYPE svg PUBLIC "-//W3C//DTD SVG 1.1//EN" "http://www.w3.org/Graphics/SVG/1.1/DTD/svg11.dtd"><svg t="1569307241739" class="icon" viewBox="0 0 1024 1024" version="1.1" xmlns="http://www.w3.org/2000/svg" p-id="1390" xmlns:xlink="http://www.w3.org/1999/xlink" width="200" height="200"><defs><style type="text/css"></style></defs><path d="M539.648 114.261333l-10.453333-11.349333c0.170667-0.170667 12.373333-11.434667 17.621333-17.493333 5.162667-6.229333 14.592-20.650667 14.762667-20.736l12.842666 8.32c-0.597333 0.682667-9.984 15.317333-16 22.272-5.845333 7.04-18.261333 18.432-18.773333 18.986666z m67.285333 452.138667c-0.512-0.170667-10.24-6.570667-15.573333-9.429333-4.992-2.517333-13.653333-6.229333-18.005333-8.149334l9.088-26.112-38.314667-18.944-12.202667 37.162667c-7.424 0.170667-30.421333 2.261333-64.426666 16.597333-40.917333 17.066667-72.021333 43.733333-72.32 43.904l-6.101334 5.333334 27.349334 1.066666 0.853333-0.682666c0.256-0.256 30.762667-22.826667 47.744-30.08a104.106667 104.106667 0 0 1 14.08-4.48 546.56 546.56 0 0 0-25.6 13.653333c-8.490667 5.077333-24.32 16.256-25.002667 16.768l-7.936 5.504 29.098667 0.682667 0.768-0.426667c0.512-0.341333 49.664-26.581333 76.330667-32.426667l8.362666-2.005333c6.186667-1.578667 10.496-2.730667 18.005334-2.730667 6.656 0 15.744 0.896 29.354666 2.986667 16.981333 2.517333 28.16 6.741333 28.330667 6.826667l10.24 4.010666-13.738667-18.602666-0.512-0.341334 0.128-0.085333z m-383.146666-311.381333h-1.237334l-42.922666 39.082666v1.28a41.258667 41.258667 0 0 0 11.008 30.549334c7.765333 8.362667 17.92 13.184 29.269333 13.610666h1.834667a42.24 42.24 0 0 0 42.325333-40.106666 42.794667 42.794667 0 0 0-40.277333-44.416zM221.866667 333.141333h-1.749334a32.981333 32.981333 0 0 1-14.08-3.626666 21.973333 21.973333 0 0 0 25.429334-24.448 21.930667 21.930667 0 1 0-43.605334 3.797333 36.309333 36.309333 0 0 1-1.92-11.946667l38.912-35.541333c19.029333 1.792 33.706667 18.389333 32.768 37.632s-16.682667 34.133333-35.925333 34.133333H221.866667z m398.037333-158.933333l-12.501333-8.32-17.493334 11.306667-16.853333-12.16-12.842667 7.68 17.237334 12.416-17.749334 11.52 12.672 7.68 17.066667-10.837334 16.512 11.946667 13.184-7.210667-17.365333-12.629333" fill="" p-id="1391"></path><path d="M1024 833.066667c-9.088-8.917333-17.834667-17.749333-26.837333-26.752-20.48-20.821333-40.832-41.984-60.501334-63.402667a1375.317333 1375.317333 0 0 1-67.498666-78.677333c-9.6-12.074667-18.816-24.746667-27.562667-37.589334a427.093333 427.093333 0 0 1-28.501333-51.84c-9.002667-18.986667-16.981333-38.4-24.576-57.856 10.24 8.96 19.754667 18.944 28.330666 29.525334 0.896-9.173333 1.749333-18.346667 2.517334-27.648l0.981333-13.738667c0-1.408 0.512-2.816-0.341333-4.096a19.541333 19.541333 0 0 0-2.261334-3.2 173.098667 173.098667 0 0 0-17.322666-17.621333 786.773333 786.773333 0 0 0-24.917334-22.741334l-7.68-6.656a42.24 42.24 0 0 0-3.669333-3.157333c-1.322667-1.28-1.749333-4.096-2.346667-5.802667l-6.570666-20.437333c25.898667 12.16 47.317333 31.616 67.328 51.84a755.797333 755.797333 0 0 0-0.341334-42.581333c0-1.237333 0.256-4.266667-0.682666-5.418667-0.512-0.853333-1.322667-1.536-1.834667-2.346667a132.693333 132.693333 0 0 0-15.232-13.397333 503.466667 503.466667 0 0 0-22.485333-17.408c-6.656-4.992-13.568-9.898667-20.352-14.72-0.768-0.682667-3.242667-1.664-2.730667-2.56l1.664-3.413333c0.853333-1.493333 0.597333-1.92 2.261333-1.237334l7.253334 2.517334c17.322667 6.656 33.237333 15.701333 48.768 25.941333a281.728 281.728 0 0 0-22.4-55.296 426.666667 426.666667 0 0 0-62.421334-89.813333 523.008 523.008 0 0 0-52.010666-50.901334 341.589333 341.589333 0 0 0-29.824-22.741333c-4.821333-3.157333-9.6-6.357333-14.762667-9.258667-2.090667-1.28-4.48-2.389333-6.4-4.010666-7.68-6.144-15.573333-12.117333-23.424-18.304 10.154667 4.181333 20.010667 8.96 29.397333 14.421333-5.418667-8.277333-14.592-14.122667-23.253333-18.602667a249.941333 249.941333 0 0 0-41.258667-16.128c4.821333-5.12 9.984-9.728 14.762667-14.848 4.821333-5.12 9.514667-10.496 14.08-15.872 5.418667-6.4 10.752-12.8 16-19.413333l-49.322667-30.976-20.48-12.928a134.144 134.144 0 0 1-19.541333 29.013333c-7.68 8.661333-16.682667 15.744-25.6 22.997334-8.149333 6.656-16.170667 13.482667-24.149333 20.138666-2.005333 1.706667-3.925333 3.626667-6.186667 5.12-1.066667 0.896-4.096 0.170667-5.418667 0.170667H456.533333a343.808 343.808 0 0 0-38.016 2.901333 35.968 35.968 0 0 1-7.466666 0.341334l-7.594667-0.426667c-5.845333-0.341333-11.562667-0.682667-17.408-0.682667-12.330667-0.170667-24.746667 0-37.162667 1.066667a220.074667 220.074667 0 0 0-31.104 4.778667 82.602667 82.602667 0 0 0-28.16 13.312c-8.234667 6.016-16.512 13.653333-21.504 22.613333s-7.253333 19.456-9.088 29.397333c-5.76 0.554667-11.434667 0.426667-17.066666 0.682667a197.034667 197.034667 0 0 0-51.669334 9.344 154.922667 154.922667 0 0 0-57.002666 32c-8.32 7.722667-16.085333 16.213333-22.997334 25.429333-0.853333 1.066667-1.578667 2.176-2.688 2.901334-0.426667 0.384-1.152 0.682667-1.408 1.152a28.672 28.672 0 0 1-2.176 3.242666l-5.717333 9.045334c-7.168 12.16-11.776 25.386667-16.341333 38.656l-1.92 5.248 1.408-0.896c-0.426667 2.858667-0.853333 5.76-1.066667 8.618666l-0.341333 4.48v2.261334l-2.816 0.554666c-5.76 1.109333-11.562667 2.56-17.066667 4.309334-5.12 1.664-9.941333 3.669333-14.378667 6.4-4.48 2.816-8.32 6.528-12.16 10.197333-13.568 13.226667-23.978667 29.781333-29.312 48.128a96.853333 96.853333 0 0 0-2.517333 46.592 28.586667 28.586667 0 0 0 4.565333 11.178667c3.157333 3.84 8.490667 5.376 13.354667 4.053333 5.589333-1.536 10.581333-5.290667 15.829333-7.978667l13.397334-6.698666c19.413333-9.642667 39.68-19.029333 61.354666-22.4 1.493333-0.213333 4.266667 2.858667 5.589334 3.882666 2.090667 1.578667 4.266667 3.157333 6.314666 4.437334 4.650667 2.944 9.429333 5.504 14.250667 7.722666 11.178667 4.864 23.082667 7.424 34.901333 9.856a348.8 348.8 0 0 0 65.237334 7.68c8.832 0.170667 17.749333 0 26.666666-0.768 9.6-0.853333 19.242667-2.090667 28.928-2.176 10.666667-0.213333 21.162667 1.066667 31.573334 2.346667a1107.797333 1107.797333 0 0 1 98.432 16.384c-4.906667 7.68-9.685333 15.445333-14.421334 23.253333-0.341333 0.554667-3.072 0-3.754666 0a57.386667 57.386667 0 0 0-5.418667 0c-3.157333 0-6.4 0.341333-9.6 0.810667-9.002667 1.28-17.749333 3.541333-26.24 6.656-20.906667 7.722667-40.021333 20.608-56.576 35.541333-9.429333 8.32-18.346667 17.408-25.984 27.349334-2.090667 2.730667-4.010667 5.504-5.930667 8.234666 4.48-0.981333 9.002667-1.92 13.568-2.986666 2.602667-0.682667 4.992-1.152 7.509334-1.664 0.896-0.341333 1.237333-0.682667 2.090666-1.152 9.344-8.661333 19.242667-16.768 29.653334-24.021334 4.736-3.413333 9.6-6.570667 14.848-9.173333a106.666667 106.666667 0 0 1 22.741333-7.424c-14.08 7.68-28.928 14.933333-41.685333 24.917333-7.338667 5.930667-13.994667 12.416-20.906667 18.730667l27.904-4.437333c0.426667 0 0.597333-0.170667 0.981333-0.426667l7.253334-4.010667c4.821333-2.730667 9.813333-5.333333 14.762666-7.936 10.24-5.248 20.565333-10.24 31.232-14.506666 10.069333-4.010667 20.48-7.594667 31.232-9.6 9.429333-1.962667 18.261333-2.218667 27.648 0 14.592 3.157333 28.586667 9.898667 41.344 17.664 0.896 0.597333 1.493333 1.408 2.346667 0.597333 0.682667-0.597333 4.181333-3.157333 3.84-3.925333l-7.68-14.250667c-0.682667-1.237333-0.981333-2.090667-2.176-2.816l-5.589333-3.285333a240.426667 240.426667 0 0 1-21.76-14.122667c-1.578667-0.981333-3.328-1.664-3.498667-3.797333-0.170667-1.962667 0.597333-3.968 1.237333-5.802667 1.408-3.84 3.413333-7.210667 5.589334-10.581333 1.408-2.474667 3.072-4.736 4.650666-7.082667 0.597333-0.768 0.426667-0.896 1.322667-0.597333l5.077333 1.450666c10.069333 3.285333 20.010667 6.784 30.336 9.386667 11.52 2.901333 23.253333 5.248 34.986667 7.509333l2.048 0.426667c-2.389333-1.28-3.882667-3.84-5.632-5.802667-0.981333-1.28-1.493333-2.133333-3.157333-2.56l-4.48-0.853333c-3.157333-0.682667-6.314667-1.28-9.6-2.090667a267.434667 267.434667 0 0 1-33.152-8.917333c-16-5.546667-32.341333-9.898667-48.853334-13.738667a1219.2 1219.2 0 0 0-62.506666-11.733333c-10.666667-1.749333-21.248-3.157333-32-4.650667-10.496-1.450667-21.162667-2.986667-31.829334-3.712-22.997333-1.450667-45.824 3.712-68.906666 3.456-15.573333-0.170667-31.317333-2.346667-46.762667-4.48l-2.901333-0.384c10.752-3.968 21.333333-8.021333 32-12.16 10.069333-4.053333 20.096-8.192 30.08-12.330666 5.418667-2.218667 10.666667-4.48 15.914666-6.698667 4.821333-2.176 9.6-4.266667 13.994667-7.253333 17.408-11.904 28.842667-31.018667 41.6-47.317334 11.648-15.402667 25.002667-29.866667 42.24-38.741333 5.504-2.816 11.178667-4.992 17.066667-6.656-12.074667-18.730667-23.424-39.68-26.581334-62.08l4.010667 1.578667c1.493333 0.512 2.730667 0.682667 3.072 1.92l1.237333 5.76c1.109333 3.882667 2.261333 7.509333 3.669334 11.178666 3.072 8.149333 6.826667 16 11.093333 23.509334 9.344 16.896 20.650667 32.682667 32.682667 47.786666 22.997333 29.269333 48.853333 55.68 74.069333 82.816 6.186667 6.741333 11.733333 13.824 17.493333 20.992 6.4 7.978667 12.928 16 19.498667 23.936 5.162667 6.016 9.984 12.16 15.189333 18.176l4.010667 4.778667c0.682667 0.768 1.578667 1.109333 2.602667 1.536 25.770667 12.8 51.754667 25.6 77.738666 38.186667 18.517333 8.917333 37.077333 17.92 55.850667 26.581333 10.069333 4.650667 20.096 9.344 30.336 13.653333a32.853333 32.853333 0 0 0 4.181333 1.664c0.682667 0.426667 1.237333 0.682667 2.005334 0.981334l0.682666 2.090666c1.152 3.072 2.176 6.186667 3.242667 9.258667 2.090667 6.016 4.181333 11.904 6.314667 17.749333 14.08 38.912 29.653333 77.397333 48.853333 114.176 14.762667 27.989333 30.506667 55.509333 46.506667 82.730667a5359.573333 5359.573333 0 0 0 95.274666 154.88c6.229333 9.685333 12.330667 19.584 18.730667 29.354667l2.688 4.010666 33.066667-48.682666 8.149333-12.074667a20.906667 20.906667 0 0 0 3.242667-4.650667l-6.656-10.24c-12.416-19.242667-24.917333-38.314667-37.162667-57.6l-35.328-54.741333-4.48-7.082667 27.989333 34.090667 47.573334 57.6c5.162667 6.229333 10.069333 12.330667 15.104 18.688 9.344-17.152 18.730667-34.176 28.245333-51.242667 3.669333-6.997333 7.509333-14.08 11.349333-20.992M517.546667 81.706667c13.184-10.496 24.021333-24.021333 32.298666-38.656l50.261334 31.701333 7.68 4.778667c-10.496 12.8-21.162667 25.770667-33.066667 37.248-1.493333 1.450667-3.157333 2.944-4.565333 4.437333-0.896 1.066667-2.005333 2.176-2.986667 3.2l-1.408 1.621333c-0.981333-0.298667-1.92-0.682667-2.901333-0.853333a366.293333 366.293333 0 0 0-56.405334-11.221333 1506.986667 1506.986667 0 0 0-24.661333-2.474667c11.733333-9.984 23.765333-19.925333 35.754667-29.781333m-74.837334 58.453333c9.898667-4.096 20.565333-6.4 31.146667-8.149333a232.96 232.96 0 0 1 63.530667-1.706667c15.104 1.621333 29.909333 4.608 44.416 8.96l-6.016 4.906667-9.6-2.602667c-6.016-1.237333-11.989333-2.56-18.005334-3.498667a248.362667 248.362667 0 0 0-31.957333-2.773333 216.021333 216.021333 0 0 0-58.496 6.784 177.578667 177.578667 0 0 0-37.504 14.165333 132.608 132.608 0 0 0-33.28 24.832 111.232 111.232 0 0 0-24.32 37.290667l-1.237333 3.2-0.512 1.621333-2.901334-0.469333-3.498666-0.469333c9.984-30.677333 32.554667-54.869333 60.501333-70.357334a128.853333 128.853333 0 0 1 27.733333-11.904m-167.68 15.957334a79.530667 79.530667 0 0 1 48.597334-31.701334c21.418667-4.309333 43.349333-5.077333 65.066666-4.565333-22.4 5.589333-44.8 13.909333-63.488 27.818667a97.493333 97.493333 0 0 0-56.064 36.693333h-3.584c0.981333-5.76 2.346667-11.52 4.181334-17.066667a42.026667 42.026667 0 0 1 5.077333-11.093333m37.632 2.389333c-6.186667 6.101333-11.52 12.928-16.682667 20.010667-2.005333 2.944-4.181333 6.528-7.68 8.149333-3.626667 1.664-8.277333-0.213333-11.946666-1.322666 9.557333-11.904 22.229333-21.077333 36.309333-26.837334M98.474667 280.96c3.413333-6.826667 7.765333-13.44 11.733333-19.84 0.682667-1.152 2.261333-1.962667 3.157333-2.688a1069.44 1069.44 0 0 1 46.165334-32.512c7.082667-4.565333 14.08-9.088 21.418666-13.098667 7.765333-4.309333 15.744-7.68 24.106667-10.410666A291.328 291.328 0 0 1 250.624 192c7.424-1.066667 15.402667-2.432 22.656-0.64-14.08 8.021333-28.074667 16-42.24 23.808-14.592 8.149333-29.397333 15.658667-44.16 23.552-14.165333 7.68-28.16 16-41.856 24.618667-14.336 8.789333-28.586667 17.877333-42.752 26.837333-3.413333 2.176-6.826667 4.48-10.24 6.613333 1.92-5.333333 3.84-10.709333 6.442667-15.829333m43.050666 130.389333c-1.237333 2.389333-5.717333 1.792-7.978666 1.792-4.010667 0-7.936 0-11.904 0.256-11.008 0.64-21.76 2.56-32.341334 5.888-20.266667 6.272-39.338667 16-58.24 25.770667-4.266667 2.346667-8.661333 5.76-13.482666 6.912a6.613333 6.613333 0 0 1-7.082667-2.688 25.173333 25.173333 0 0 1-2.730667-8.448 66.816 66.816 0 0 1-1.408-15.701333c0-14.08 3.242667-28.16 9.173334-40.96 4.096-8.96 9.429333-17.109333 15.829333-24.490667 6.4-7.466667 13.909333-14.976 22.997333-19.2 15.146667-6.912 33.066667-9.088 49.664-10.026667 3.072-0.213333 6.186667-0.298667 9.258667-0.298666 4.266667 0 9.258667-0.682667 13.269333 0.810666 3.157333 1.152 5.162667 4.48 6.4 7.381334 1.92 4.48 3.157333 9.6 4.266667 14.336 2.602667 11.093333 5.248 22.4 6.186667 33.749333 0.426667 5.077333 0.682667 10.197333 0.170666 15.317333-0.384 3.114667-0.597333 6.656-2.133333 9.514667m120.704-84.181333a162.986667 162.986667 0 0 1-54.442667 20.437333 72.192 72.192 0 0 1-12.501333 0.896c-4.309333-0.128-8.234667-1.536-12.501333-2.858667a123.392 123.392 0 0 1-24.32-9.941333 20.693333 20.693333 0 0 1-7.424-6.4 12.629333 12.629333 0 0 1-0.981334-7.424c0.512-9.856 4.010667-19.541333 8.661334-28.16a76.8 76.8 0 0 1 35.84-33.066667c37.504-16.896 79.573333-1.237333 111.402666 20.906667l3.413334 2.602667c-6.570667 7.04-13.269333 13.696-20.181334 20.352a195.712 195.712 0 0 1-27.050666 22.656M354.56 244.864a380.970667 380.970667 0 0 1-57.856-31.488c19.157333 8.021333 39.850667 12.8 60.330667 15.786667 11.008 1.578667 22.229333 3.072 33.322666 3.413333 11.989333 0.341333 24.064-0.896 35.84-3.2a261.632 261.632 0 0 0 66.816-23.509333c21.077333-10.453333 41.130667-22.912 60.288-36.650667 9.258667-6.613333 18.346667-13.44 27.008-20.778667 0.896-0.682667 7.424-6.869333 7.850667-6.570666l1.749333 1.322666 22.912 17.749334c13.994667 10.837333 28.074667 21.76 42.154667 32.512-38.656 13.909333-77.909333 26.837333-117.418667 38.570666-22.144 6.656-44.288 12.842667-66.773333 17.92-17.578667 4.181333-35.584 8.064-53.589333 8.96-21.632 0.938667-42.922667-5.76-62.72-14.08m377.6 168.192c3.242667 0.896 6.186667 1.92 9.173333 2.858667l4.010667 1.408c0.682667 0.256 1.322667 0.64 1.92 0.853333l0.896 2.56c1.92 6.229333 3.84 12.330667 5.930666 18.432l-19.242666-16.170666-3.84-3.157334c-0.896-0.682667-1.92-0.896-1.237334-1.962666l2.517334-4.864m-28.629334 61.610666l1.493334-2.688 1.152-1.962666c0.512-0.768 0.341333-0.938667 1.237333-0.512 5.504 2.304 11.008 4.736 16.426667 7.253333 10.24 4.693333 20.266667 9.813333 29.994666 15.530667 4.565333 2.773333 9.258667 5.76 13.738667 8.746666l6.4 4.48 3.157333 2.432c1.408 1.152 1.749333 2.688 2.432 4.352 4.437333 12.032 9.344 24.064 14.421334 36.010667 3.328 8.064 6.912 16.170667 10.581333 24.149333a481.194667 481.194667 0 0 0-40.832-44.586666 674.816 674.816 0 0 0-45.994667-41.856l-13.781333-11.264m159.829333 273.92l-5.162666 3.84 0.341333 0.682666 2.688 4.010667 11.562667 17.92 38.570666 59.818667c13.269333 20.48 26.496 41.088 39.765334 61.653333l13.184 20.48 3.584 5.674667a12.16 12.16 0 0 1 1.237333 1.92c-11.093333 16.426667-22.314667 32.853333-33.408 49.237333-1.152 1.578667-2.176 3.242667-3.157333 4.736-10.24-15.914667-20.437333-31.744-30.506667-47.658667-17.066667-27.093333-33.92-54.485333-50.517333-81.749333a3069.312 3069.312 0 0 1-53.930667-91.349333 914.261333 914.261333 0 0 1-45.184-88.576 1328.512 1328.512 0 0 1-34.602667-90.496c20.736 8.234667 41.813333 15.658667 63.146667 22.229333 6.186667 1.92 12.330667 3.84 18.602667 5.418667l2.688 0.768c0.341333 0 0.597333-1.664 0.768-2.090667 0.768-2.730667 1.322667-5.504 1.92-8.32 1.322667-5.333333 2.176-10.837333 3.157333-16.256 8.746667 18.261333 18.602667 36.010667 29.909333 52.736 9.173333 13.397333 18.986667 26.496 29.269334 39.253333a1420.330667 1420.330667 0 0 0 70.101333 80.981334c19.754667 21.077333 39.850667 41.984 60.074667 62.506666l16.597333 16.597334c0.256 0.256 1.664 1.322667 1.578667 1.749333l-1.322667 2.261333-6.314667 11.733334-25.088 45.568c-7.68-9.344-15.402667-18.602667-23.082666-28.074667l-48-58.069333c-13.397333-16.512-27.178667-32.981333-40.661334-49.493334l-7.936-9.6" fill="" p-id="1392"></path></svg>