<?xml version="1.0" standalone="no"?><!DOCTYPE svg PUBLIC "-//W3C//DTD SVG 1.1//EN" "http://www.w3.org/Graphics/SVG/1.1/DTD/svg11.dtd"><svg t="1571108036762" class="icon" viewBox="0 0 1024 1024" version="1.1" xmlns="http://www.w3.org/2000/svg" p-id="1266" xmlns:xlink="http://www.w3.org/1999/xlink" width="200" height="200"><defs><style type="text/css"></style></defs><path d="M885.9254784 537.4836736c0.21408427-0.24794453 0.4325376-0.49261227 0.64006827-0.74601813 0.2392064-0.29054293 0.4653056-0.58763947 0.6946816-0.88364374 0.14964053-0.1933312 0.30255787-0.3833856 0.44782933-0.57890133 0.24357547-0.32768 0.475136-0.66082133 0.70669653-0.99396267 0.1212416-0.17476267 0.24576-0.34624853 0.3637248-0.52210346 0.23156053-0.34515627 0.45110613-0.6946816 0.66955947-1.04420694 0.11031893-0.1769472 0.22391467-0.35170987 0.3309568-0.52974933 0.20753067-0.344064 0.40413867-0.69249707 0.5996544-1.0420224 0.11031893-0.19770027 0.22391467-0.39430827 0.3309568-0.59419307 0.17585493-0.32877227 0.34297173-0.66082133 0.50899627-0.99396266 0.11578027-0.23156053 0.2326528-0.4620288 0.344064-0.69577387 0.1441792-0.3047424 0.27962027-0.61166933 0.41506133-0.91859627 0.12014933-0.2719744 0.24139093-0.5439488 0.35607893-0.8192 0.11250347-0.27306667 0.21845333-0.54831787 0.3244032-0.8224768 0.12233387-0.31566507 0.24466773-0.63133013 0.35826347-0.950272 0.08628907-0.2424832 0.16602453-0.48605867 0.24685227-0.72963413 0.11905707-0.35498667 0.2359296-0.70888107 0.34515626-1.0682368 0.06444373-0.21517653 0.12342613-0.4325376 0.18459307-0.6488064 0.10922667-0.3866624 0.21736107-0.77441707 0.3145728-1.1665408 0.049152-0.19879253 0.0917504-0.3997696 0.13871787-0.5996544 0.09393493-0.40523093 0.1867776-0.81155413 0.26760533-1.22115413 0.04041387-0.20534613 0.07318187-0.41069227 0.11031893-0.61713067 0.0720896-0.4030464 0.14527147-0.80500053 0.20425387-1.212416 0.03495253-0.2392064 0.06007467-0.4784128 0.0917504-0.71871147 0.04805973-0.3735552 0.098304-0.74601813 0.1343488-1.1239424 0.03167573-0.3178496 0.049152-0.63788373 0.07318187-0.9568256 0.02184533-0.3014656 0.05024427-0.60183893 0.06444373-0.90548906a38.23588693 38.23588693 0 0 0 0-3.7781504c-0.01529173-0.30365013-0.0425984-0.60402347-0.06444373-0.90548907-0.0229376-0.31894187-0.04150613-0.638976-0.07318187-0.9568256-0.03713707-0.376832-0.08738133-0.74929493-0.1343488-1.12285013-0.03058347-0.2392064-0.0557056-0.47950507-0.0917504-0.71871147a40.00535893 40.00535893 0 0 0-0.20425387-1.21132373c-0.03713707-0.2064384-0.06990507-0.4128768-0.11031893-0.61822294a37.92022187 37.92022187 0 0 0-0.26760533-1.22115413c-0.0458752-0.1998848-0.0884736-0.40086187-0.13871787-0.5996544a37.36753493 37.36753493 0 0 0-0.3145728-1.1665408c-0.06116693-0.2162688-0.11905707-0.43362987-0.18459307-0.6488064a39.17851307 39.17851307 0 0 0-0.344064-1.06714453c-0.08192-0.24357547-0.1605632-0.4882432-0.24685226-0.7307264-0.11359573-0.31894187-0.2359296-0.63460693-0.35826347-0.950272-0.10594987-0.2752512-0.21189973-0.5505024-0.3244032-0.82356907a36.35063467 36.35063467 0 0 0-0.35607893-0.8192c-0.13544107-0.30692693-0.27088213-0.61494613-0.41506134-0.91859627-0.1114112-0.23374507-0.22828373-0.46421333-0.344064-0.6946816-0.16602453-0.33314133-0.33314133-0.66628267-0.51008853-0.9961472-0.10704213-0.19879253-0.2195456-0.39540053-0.32986453-0.59200853-0.19551573-0.34952533-0.39212373-0.69905067-0.5996544-1.04311467-0.10704213-0.17803947-0.22063787-0.35280213-0.32986454-0.52865706-0.2195456-0.3506176-0.4390912-0.7012352-0.67065173-1.04639147-0.11687253-0.17476267-0.24139093-0.34515627-0.36154027-0.5177344a36.81375573 36.81375573 0 0 0-0.70997333-0.99833173c-0.1441792-0.19442347-0.29600427-0.38229333-0.44455253-0.57344-0.23046827-0.2981888-0.45765973-0.5963776-0.69905067-0.88910507-0.20534613-0.25012907-0.42161493-0.49261227-0.63351467-0.73728-0.19442347-0.22500693-0.3833856-0.45329067-0.58436266-0.6750208a38.32763733 38.32763733 0 0 0-1.28232107-1.34894933l-0.02184533-0.0229376-177.6386048-177.6418816c-14.9291008-14.9291008-39.1348224-14.9291008-54.0639232 0s-14.9291008 39.1348224 0 54.0639232L764.71773867 474.26000213H431.02808747c-21.11351467 0-38.22933333 17.11581867-38.22933334 38.22933334s17.11581867 38.22933333 38.22933334 38.22933333H764.71773867L652.3387904 663.09761707c-14.9291008 14.9291008-14.9291008 39.1348224 0 54.0639232s39.1348224 14.9291008 54.0639232 0l177.64078933-177.64078934a38.67716267 38.67716267 0 0 0 1.3041664-1.37188693c0.19879253-0.21736107 0.38557013-0.44346027 0.57780907-0.6651904z" fill="#c5c5c5" p-id="1267"></path><path d="M434.97772373 864.6885376h-243.57546666v-703.41973333h243.57546666c23.52633173 0 42.5984-19.07206827 42.5984-42.5984s-19.07206827-42.5984-42.5984-42.5984h-286.17386666c-23.52633173 0-42.5984 19.07206827-42.5984 42.5984v788.61653333c0 23.52633173 19.07206827 42.5984 42.5984 42.5984h286.17386666c23.52633173 0 42.5984-19.07206827 42.5984-42.5984s-19.07206827-42.5984-42.5984-42.5984z" fill="#c5c5c5" p-id="1268"></path></svg>